<!DOCTYPE svg PUBLIC "-//W3C//DTD SVG 1.1//EN" "http://www.w3.org/Graphics/SVG/1.1/DTD/svg11.dtd">
<svg fill="#CE0197" height="200px" width="200px" version="1.1" id="Layer_1" xmlns="http://www.w3.org/2000/svg" xmlns:xlink="http://www.w3.org/1999/xlink" viewBox="0 0 512 512" xml:space="preserve" stroke="#CE0197" stroke-width="0">
<g id="SVGRepo_bgCarrier" stroke-width="0"/>
<g id="SVGRepo_iconCarrier"> <g> <g> <path d="M10.585,484.504h-0.137C4.679,484.504,0,489.182,0,494.952c0,5.77,4.679,10.448,10.448,10.448h0.137 c5.769,0,10.448-4.677,10.448-10.448C21.033,489.182,16.354,484.504,10.585,484.504z"/> </g> </g> <g> <g> <path d="M501.501,484.504h-0.137c-5.769,0-10.448,4.678-10.448,10.448c0,5.77,4.679,10.448,10.448,10.448h0.137 c5.769,0,10.448-4.677,10.448-10.448C511.949,489.182,507.27,484.504,501.501,484.504z"/> </g> </g> <g> <g> <path d="M296.554,439.578h-0.137c-5.769,0-10.448,4.677-10.448,10.448c0,5.77,4.679,10.448,10.448,10.448h0.137 c5.769,0,10.448-4.678,10.448-10.448C307.002,444.256,302.324,439.578,296.554,439.578z"/> </g> </g> <g> <g> <path d="M369.553,439.578h-39.199c-5.769,0-10.448,4.677-10.448,10.448c0,5.77,4.679,10.448,10.448,10.448h39.199 c5.769,0,10.448-4.678,10.448-10.448C380.001,444.256,375.322,439.578,369.553,439.578z"/> </g> </g> <g> <g> <path d="M215.279,439.578h-0.137c-5.769,0-10.448,4.677-10.448,10.448c0,5.77,4.679,10.448,10.448,10.448h0.137 c5.769,0,10.448-4.678,10.448-10.448C225.727,444.256,221.048,439.578,215.279,439.578z"/> </g> </g> <g> <g> <path d="M181.341,439.578h-39.199c-5.769,0-10.448,4.677-10.448,10.448c0,5.77,4.679,10.448,10.448,10.448h39.199 c5.77,0,10.448-4.678,10.448-10.448C191.789,444.256,187.11,439.578,181.341,439.578z"/> </g> </g> <g> <g> <path d="M294.078,205.544c-6.439,0-11.679,5.239-11.679,11.679c0,6.439,5.24,11.678,11.679,11.678 c6.439,0,11.678-5.239,11.678-11.678C305.756,210.783,300.517,205.544,294.078,205.544z"/> </g> </g> <g> <g> <path d="M217.871,205.544c-6.439,0-11.678,5.239-11.678,11.679c0,6.439,5.239,11.678,11.678,11.678 c6.439,0,11.679-5.239,11.679-11.678C229.549,210.784,224.31,205.544,217.871,205.544z"/> </g> </g> <g> <g> <path d="M266.227,254.771h-20.418c-5.769,0-10.448,4.678-10.448,10.448c0,11.39,9.267,20.658,20.658,20.658 c11.39,0,20.657-9.267,20.657-20.658C276.675,259.448,271.996,254.771,266.227,254.771z"/> </g> </g> <g> <g> <path d="M467.564,484.504h-57.965V413.86c0-20.366-12.291-39.709-29.887-47.042l-67.241-28.016 c-2.391-0.996-3.936-3.313-3.936-5.904V316.63l27.311-15.659c0.19-0.11,0.377-0.225,0.56-0.346 c13.674-9.03,22.653-25.09,24.019-42.96c0.021-0.264,0.03-0.531,0.03-0.796v-8.674c13.568-4.413,23.402-17.181,23.402-32.202 s-9.835-27.788-23.402-32.202v-8.459h10.609c7.813,0,14.169-6.355,14.169-14.168v-20.835c0-6.782-4.789-12.465-11.164-13.848 c-3.769-26.224-16.102-50.489-35.309-69.125c-13.75-13.342-30.392-23.167-48.525-28.713v-7.413c0-8.069-6.357-14.632-14.17-14.632 h-40.182c-7.813,0-14.169,6.564-14.169,14.632v6.824c-18.909,5.421-36.233,15.449-50.51,29.301 c-19.357,18.783-31.734,43.283-35.396,69.743c-5.313,2.046-9.092,7.204-9.092,13.228v20.835c0,7.813,6.357,14.168,14.169,14.168 h10.609v8.459c-13.568,4.413-23.402,17.181-23.402,32.202s9.835,27.788,23.402,32.202v8.674c0,0.265,0.01,0.532,0.03,0.796 c1.372,17.943,10.288,34.003,23.851,42.96c0.187,0.124,0.377,0.241,0.573,0.352l27.467,15.702v16.219 c0,2.59-1.545,4.907-3.936,5.904l-67.241,28.017c-17.597,7.332-29.887,26.677-29.887,47.041v70.644h-7.368V326.665 c20.963,1.597,41.041,7.951,57.42,18.314c1.706,1.08,3.646,1.619,5.586,1.619c1.975,0,3.948-0.559,5.674-1.675 c3.421-2.213,5.245-6.212,4.67-10.247c-4.928-34.586-40.953-60.666-83.798-60.666c-42.845,0-78.87,26.083-83.799,60.669 c-0.575,4.034,1.249,8.033,4.67,10.247c3.422,2.213,7.816,2.235,11.26,0.055c16.379-10.363,36.457-16.717,57.42-18.314v157.837 H44.385c-5.769,0-10.448,4.678-10.448,10.448s4.679,10.448,10.448,10.448h423.178c5.769,0,10.448-4.678,10.448-10.448 S473.333,484.504,467.564,484.504z M34.408,313.51c2.038-1.979,4.291-3.848,6.744-5.588c11.831-8.392,27.239-13.014,43.383-13.014 s31.552,4.622,43.383,13.014c2.453,1.74,4.706,3.61,6.744,5.588c-15.665-5.374-32.59-8.151-50.128-8.151 S50.073,308.137,34.408,313.51z M147.613,154.438v-7.629c4.447-0.986,7.856-4.81,8.157-9.534 c1.573-24.627,12.222-47.683,29.987-64.92c13.505-13.104,30.296-22.063,48.561-25.911c4.834-1.019,8.294-5.284,8.294-10.223 v-8.725h26.728v9.163c0,4.868,3.361,9.09,8.104,10.181c17.557,4.041,33.728,12.864,46.766,25.515 c17.765,17.237,28.413,40.292,29.987,64.92c0.345,5.405,4.758,9.633,10.141,9.778v7.385H147.613z M186.636,283.017 c-7.983-5.407-13.284-15.292-14.245-26.569v-17.052c0-5.77-4.679-10.448-10.448-10.448c-7.143,0-12.954-5.812-12.954-12.954 s5.812-12.954,12.954-12.954c5.769,0,10.448-4.678,10.448-10.448v-17.257h167.167v17.257c0,5.77,4.679,10.448,10.448,10.448 c7.143,0,12.954,5.812,12.954,12.954s-5.812,12.954-12.954,12.954c-5.769,0-10.448,4.678-10.448,10.448v17.05 c-0.949,11.049-6.442,21.174-14.419,26.574l-56.094,32.164c-0.19,0.11-0.377,0.225-0.56,0.346c-7.834,5.173-17.184,5.173-25.018,0 c-0.187-0.123-0.377-0.241-0.573-0.352L186.636,283.017z M245.579,484.505H123.247v-0.001V413.86 c0-11.776,7.321-23.707,17.029-27.753l55.456-23.107l15.802,44.261c1.279,3.582,4.402,6.184,8.155,6.798 c0.563,0.092,1.126,0.137,1.686,0.137c3.171,0,6.208-1.446,8.208-3.985l15.996-20.316V484.505z M214.667,353.892 c6.39,5.992,13.97,10.493,22.246,13.228l-12.056,15.314L214.667,353.892z M224.292,333.407c0.003-0.17,0.019-0.337,0.019-0.509 v-4.274l7.939,4.539c7.334,4.763,15.529,7.144,23.725,7.144c8.198,0,16.396-2.383,23.731-7.148l7.931-4.548v4.288 c0,0.213,0.019,0.422,0.023,0.633c-7.494,9.916-19.079,15.755-31.635,15.755C243.408,349.287,231.783,343.401,224.292,333.407z M297.388,353.887l-10.192,28.547l-12.059-15.317C283.413,364.381,290.997,359.879,297.388,353.887z M388.702,484.504H266.474 v-94.611l15.997,20.318c2,2.54,5.037,3.985,8.208,3.985c0.559,0,1.123-0.045,1.686-0.137c3.753-0.613,6.876-3.217,8.155-6.798 l15.789-44.223l55.366,23.069c9.707,4.044,17.028,15.976,17.028,27.753V484.504z"/> </g> </g> <g> <g> <path d="M256.158,68.895c-20.619,0-37.394,16.775-37.394,37.394s16.775,37.394,37.394,37.394 c20.619,0,37.394-16.775,37.394-37.394S276.777,68.895,256.158,68.895z M256.158,122.787c-9.097,0-16.498-7.401-16.498-16.498 c0-9.097,7.401-16.498,16.498-16.498c9.097,0,16.498,7.401,16.498,16.498C272.657,115.386,265.255,122.787,256.158,122.787z"/> </g> </g> <g> <g> <path d="M474.956,38.377h-65.929c-20.427,0-37.044,16.617-37.044,37.044c0,16.798,11.243,31.012,26.596,35.533v29.636 c0,4.031,2.286,7.522,5.63,9.265v72.236c0,9.902,3.833,18.92,10.088,25.664v38.15c0,5.77,4.679,10.448,10.448,10.448h6.798v21.209 c0,5.77,4.679,10.448,10.448,10.448c5.769,0,10.448-4.677,10.448-10.448v-21.209h6.798c5.769,0,10.448-4.677,10.448-10.448v-38.15 c6.254-6.744,10.088-15.763,10.088-25.664v-72.006c3.6-1.65,6.107-5.275,6.107-9.494V110.82 C500.991,106.147,512,92.046,512,75.422C512,54.996,495.383,38.377,474.956,38.377z M435.193,275.458V259.25 c2.207,0.403,4.477,0.625,6.798,0.625s4.592-0.221,6.798-0.625v16.208H435.193z M458.878,222.092 c0,9.311-7.575,16.886-16.886,16.886c-9.311,0-16.886-7.575-16.886-16.886v-71.053h33.772V222.092z M464.984,130.143h-45.509 v-17.677h45.509V130.143z M474.956,91.57h-65.929c-8.904,0-16.148-7.245-16.148-16.148c0-8.904,7.245-16.148,16.148-16.148h65.929 c8.904,0,16.148,7.245,16.148,16.148C491.104,84.325,483.859,91.57,474.956,91.57z"/> </g> </g> <g> </g> <g> </g> <g> </g> <g> </g> <g> </g> <g> </g> <g> </g> <g> </g> <g> </g> <g> </g> <g> </g> <g> </g> <g> </g> <g> </g> <g> </g> </g>
</svg>